<svg xmlns="http://www.w3.org/2000/svg" viewBox="0 0 520.89 142.24"><defs><style>.cls-1{fill:#273a73;}.cls-2{fill:#f23827;}</style></defs><g id="Layer_3" data-name="Layer 3"><polygon class="cls-1" points="9.81 7.12 9.81 37.28 21.77 37.28 73.91 7.12 9.81 7.12"/><polygon class="cls-1" points="36.57 40.02 36.57 72.53 61.28 58.25 61.28 40.02 36.57 40.02"/><polygon class="cls-1" points="36.57 120.04 36.57 134.53 61.28 134.53 61.28 105.8 36.57 120.04"/><polygon class="cls-1" points="80.53 7.12 28.39 37.28 88 37.28 88 7.12 80.53 7.12"/><polygon class="cls-1" points="94.95 130.38 119.31 116.19 119.31 134.53 94.95 134.53 94.95 130.38"/><polygon class="cls-2" points="121.79 55.48 142.43 55.48 121.79 67.57 121.79 55.48"/><polygon class="cls-2" points="121.79 70.83 121.79 86.17 146.23 86.17 146.23 56.67 121.79 70.83"/><polygon class="cls-1" points="173.07 128.94 163.27 134.53 173.07 134.53 173.07 128.94"/><polygon class="cls-1" points="239.32 134.53 258.14 123.75 258.14 134.53 239.32 134.53"/><polygon class="cls-2" points="247.15 86.17 258.14 79.79 258.14 86.17 247.15 86.17"/><polygon class="cls-2" points="218.22 55.48 206.92 62.03 206.92 55.48 218.22 55.48"/><polygon class="cls-1" points="206.92 7.12 226.4 7.12 206.92 18.36 206.92 7.12"/><polygon class="cls-1" points="265.24 9.98 270.01 7.12 301.75 7.12 265.24 28.27 265.24 9.98"/><polygon class="cls-1" points="332.52 36.93 343.42 30.56 343.42 36.93 332.52 36.93"/><polygon class="cls-1" points="265.24 39.57 265.24 71.99 289.59 57.81 289.59 39.57 265.24 39.57"/><polygon class="cls-2" points="292.15 39.57 316.51 39.57 316.51 42.42 292.15 56.49 292.15 39.57"/><polygon class="cls-1" points="265.24 119.62 265.24 134.53 289.59 134.53 289.59 105.47 265.24 119.62"/><polygon class="cls-1" points="319.07 132.55 319.07 134.53 343.42 134.53 343.42 118.57 319.07 132.55"/><polygon class="cls-1" points="350.4 39.57 350.4 66.69 374.76 53.06 374.76 39.57 350.4 39.57"/><polygon class="cls-1" points="350.4 7.12 377.71 7.12 350.4 22.8 350.4 7.12"/><polygon class="cls-1" points="428.59 25.19 408.49 36.93 428.59 36.93 428.59 25.19"/><path class="cls-1" d="M435.52,17.72c0-.27,18.69-10.6,18.69-10.6H435.52Z"/><polygon class="cls-2" points="486.92 123.14 482.52 125.75 486.92 134.53 486.92 123.14"/><polygon class="cls-1" points="489.46 121.56 489.46 134.53 513.82 134.53 513.82 107.67 489.46 121.56"/><polygon class="cls-1" points="489.46 30.12 513.82 16.14 513.82 7.12 497.99 7.12 489.46 12 489.46 30.12"/><polygon class="cls-1" points="36.57 76.16 36.57 116.57 61.28 102.32 61.28 61.89 36.57 76.16"/><polygon class="cls-1" points="94.95 86.42 94.95 126.57 119.31 112.44 119.31 72.23 94.95 86.42"/><polygon class="cls-2" points="94.95 42.57 94.95 82.84 119.31 68.83 119.31 28.39 94.95 42.57"/><polygon class="cls-1" points="94.95 7.12 94.95 38.88 119.31 24.81 119.31 7.12 94.95 7.12"/><polygon class="cls-1" points="156.15 7.12 148.72 11.39 148.72 51.74 173.07 37.68 173.07 7.12 156.15 7.12"/><polygon class="cls-1" points="148.72 55.09 148.72 95.36 173.07 81.38 173.07 41.11 148.72 55.09"/><polygon class="cls-1" points="148.72 99.31 148.72 134.53 157.29 134.53 173.07 125.36 173.07 85.16 148.72 99.31"/><polygon class="cls-1" points="180.09 81.29 180.09 121.2 204.45 107.22 204.45 66.96 180.09 81.29"/><polygon class="cls-1" points="180.09 36.93 180.09 77.24 204.45 63.17 204.45 23 180.09 36.93"/><polygon class="cls-1" points="180.09 7.12 180.09 33.81 204.45 19.48 204.45 7.12 180.09 7.12"/><polygon class="cls-1" points="232.2 7.12 206.92 21.68 206.92 36.93 250.14 36.93 258.14 32.31 258.14 7.12 232.2 7.12"/><polygon class="cls-1" points="180.09 124.72 180.09 134.53 204.45 134.53 204.45 110.65 180.09 124.72"/><polygon class="cls-1" points="214.88 104.72 206.92 109.51 206.92 134.53 233.61 134.53 258.14 120.24 258.14 104.72 214.88 104.72"/><polygon class="cls-1" points="308.61 7.12 265.24 32.14 265.24 36.93 326.1 36.93 343.42 26.86 343.42 7.12 308.61 7.12"/><polygon class="cls-1" points="265.24 75.66 265.24 116.13 289.59 101.86 289.59 61.68 265.24 75.66"/><polygon class="cls-1" points="328.04 39.57 319.07 44.62 319.07 84.98 343.42 71.18 343.42 39.57 328.04 39.57"/><polygon class="cls-1" points="319.07 88.5 319.07 128.59 343.42 114.7 343.42 74.34 319.07 88.5"/><polygon class="cls-1" points="383.87 7.12 350.4 26.42 350.4 36.93 402.42 36.93 428.59 22.03 428.59 7.12 383.87 7.12"/><polygon class="cls-1" points="350.4 70.39 350.4 110.57 374.76 96.41 374.76 56.49 350.4 70.39"/><polygon class="cls-1" points="350.4 114.52 350.4 134.53 374.76 134.53 374.76 100.45 350.4 114.52"/><polygon class="cls-1" points="404.23 39.57 404.23 79.62 428.59 65.46 428.59 39.57 404.23 39.57"/><polygon class="cls-1" points="404.23 83.31 404.23 123.14 428.59 109.16 428.59 69.33 404.23 83.31"/><polygon class="cls-1" points="404.23 127.1 404.23 134.53 428.59 134.53 428.59 112.94 404.23 127.1"/><polygon class="cls-1" points="459.88 94.83 435.52 109.07 435.52 134.53 459.88 134.53 459.88 94.83"/><polygon class="cls-1" points="435.52 65.11 435.52 105.2 459.88 91.14 459.88 51.31 435.52 65.11"/><polygon class="cls-1" points="435.52 21.15 435.52 61.51 459.88 47.17 459.88 7.12 435.52 21.15"/><polygon class="cls-1" points="489.46 33.98 489.46 74.25 513.82 60.19 513.82 20.27 489.46 33.98"/><polygon class="cls-1" points="489.46 77.68 489.46 118.04 513.82 104.24 513.82 63.79 489.46 77.68"/><polygon class="cls-2" points="224.9 55.48 206.92 65.64 206.92 86.17 240.9 86.17 258.14 76.01 258.14 55.48 224.9 55.48"/><polygon class="cls-2" points="292.15 134.53 309.22 134.53 316.51 130.28 316.51 89.99 292.15 103.88 292.15 134.53"/><polygon class="cls-2" points="292.15 60.27 292.15 100.45 316.51 86.65 316.51 45.85 292.15 60.27"/><polygon class="cls-2" points="377.32 55.48 377.32 86.17 393.01 86.17 401.67 81.11 401.67 55.48 377.32 55.48"/><polygon class="cls-2" points="462.47 7.12 462.47 45.85 477.68 36.93 462.47 7.12"/><polygon class="cls-2" points="479.29 40.09 462.47 49.72 462.47 85.73 464.19 89.16 486.92 75.66 486.92 55.48 479.29 40.09"/><polygon class="cls-2" points="465.34 91.46 481.05 122.82 486.92 119.89 486.92 79.62 465.34 91.46"/></g></svg>