<svg xmlns="http://www.w3.org/2000/svg" viewBox="0 0 520.89 140.44"><defs><style>.cls-1{fill:#273a73;}.cls-2{fill:#f23827;}</style></defs><g id="Layer_2" data-name="Layer 2"><polygon class="cls-1" points="6.16 7.19 6.16 13.09 6.16 35.77 6.16 37.35 84.36 37.35 84.36 7.19 21.14 7.19 9.71 7.19 6.16 7.19"/><rect class="cls-1" x="32.93" y="39.73" width="24.71" height="94.87"/><rect class="cls-1" x="91.31" y="7.19" width="24.35" height="127.4"/><rect class="cls-1" x="145.07" y="7.19" width="24.35" height="127.4"/><rect class="cls-1" x="261.59" y="39.64" width="24.35" height="94.96"/><rect class="cls-1" x="203.28" y="7.19" width="51.22" height="29.81"/><rect class="cls-1" x="203.28" y="104.79" width="51.22" height="29.81"/><rect class="cls-1" x="261.59" y="7.19" width="78.19" height="29.81"/><rect class="cls-1" x="315.43" y="39.64" width="24.35" height="94.96"/><rect class="cls-1" x="346.76" y="39.64" width="24.35" height="94.96"/><rect class="cls-1" x="346.76" y="7.19" width="78.19" height="29.81"/><rect class="cls-1" x="400.59" y="39.64" width="24.35" height="94.96"/><rect class="cls-1" x="176.45" y="7.19" width="24.35" height="127.4"/><rect class="cls-1" x="431.88" y="7.19" width="24.35" height="127.4"/><rect class="cls-1" x="485.82" y="7.19" width="24.35" height="127.4"/><rect class="cls-2" x="288.54" y="39.68" width="24.35" height="94.96"/><rect class="cls-2" x="373.71" y="55.55" width="24.35" height="30.69"/><polygon class="cls-2" points="458.86 7.19 458.86 85.8 483.31 134.6 483.31 55.11 458.86 7.19"/><rect class="cls-2" x="203.31" y="55.55" width="51.22" height="30.69"/><rect class="cls-2" x="118.18" y="55.55" width="24.44" height="30.69"/></g></svg>