<svg xmlns="http://www.w3.org/2000/svg" viewBox="0 0 520.89 139.48"><defs><style>.cls-1{fill:#273a73;}.cls-2{fill:#f23827;}</style></defs><g id="Layer_3" data-name="Layer 3"><polygon class="cls-1" points="9.9 5.53 36.08 5.53 9.9 20.59 9.9 5.53"/><polygon class="cls-1" points="9.9 24.28 9.9 35.65 21.85 35.65 73.92 5.53 42.31 5.53 9.9 24.28"/><polygon class="cls-1" points="28.47 35.65 60.08 35.65 88 19.5 88 5.53 80.54 5.53 28.47 35.65"/><polygon class="cls-1" points="36.63 38.02 55.95 38.02 36.63 49.19 36.63 38.02"/><polygon class="cls-1" points="61.31 38.38 36.63 52.55 36.63 70.85 61.31 56.59 61.31 38.38"/><polygon class="cls-1" points="61.31 60.22 36.63 74.48 36.63 92.77 61.31 78.54 61.31 60.22"/><polygon class="cls-1" points="61.31 82.34 36.63 96.61 36.63 114.83 61.31 100.61 61.31 82.34"/><polygon class="cls-1" points="61.31 104.08 36.63 118.3 36.63 132.77 43.25 132.77 61.31 122.33 61.31 104.08"/><polygon class="cls-1" points="61.31 125.99 49.54 132.77 61.31 132.77 61.31 125.99"/><polygon class="cls-1" points="66.02 35.65 88 22.9 88 35.65 66.02 35.65"/><polygon class="cls-1" points="94.94 5.53 112.15 5.53 94.94 15.46 94.94 5.53"/><polygon class="cls-1" points="119.27 5.53 118.12 5.53 94.94 18.98 94.94 37.24 119.27 23.19 119.27 5.53"/><polygon class="cls-1" points="119.27 26.76 94.94 40.93 94.94 59.08 119.27 45.15 119.27 26.76"/><polygon class="cls-1" points="119.27 48.83 94.94 62.94 94.94 81.15 119.27 67.16 119.27 48.83"/><polygon class="cls-1" points="94.94 84.72 119.27 70.55 119.27 88.7 94.94 102.87 94.94 84.72"/><polygon class="cls-1" points="94.94 106.5 119.27 92.51 119.27 110.71 94.94 124.82 94.94 106.5"/><polygon class="cls-1" points="94.94 128.63 119.27 114.46 119.27 132.77 94.94 132.77 94.94 128.63"/><polygon class="cls-2" points="121.75 53.83 142.36 53.83 121.75 65.9 121.75 53.83"/><polygon class="cls-2" points="146.16 55.01 121.75 69.15 121.75 84.47 126.82 84.47 146.16 73.45 146.16 55.01"/><polygon class="cls-2" points="146.16 76.96 133.05 84.47 146.16 84.47 146.16 76.96"/><polygon class="cls-1" points="156.06 5.53 148.64 9.79 148.64 27.96 172.96 14 172.96 5.53 156.06 5.53"/><polygon class="cls-1" points="172.96 17.86 148.64 32 148.64 50.09 172.96 36.04 172.96 17.86"/><polygon class="cls-1" points="172.96 39.47 148.64 53.43 148.64 71.78 172.96 57.82 172.96 39.47"/><polygon class="cls-1" points="172.96 61.51 148.64 75.56 148.64 93.65 172.96 79.69 172.96 61.51"/><polygon class="cls-1" points="172.96 83.46 148.64 97.6 148.64 116.04 172.96 101.9 172.96 83.46"/><polygon class="cls-1" points="172.96 105.15 148.64 119.47 148.64 132.77 157.2 132.77 172.96 123.61 172.96 105.15"/><polygon class="cls-1" points="172.96 127.19 163.17 132.77 172.96 132.77 172.96 127.19"/><polygon class="cls-1" points="179.98 5.53 187.76 5.53 179.98 10.5 179.98 5.53"/><polygon class="cls-1" points="194.35 5.53 204.3 5.53 204.3 17.86 179.98 32.18 179.98 13.56 194.35 5.53"/><polygon class="cls-1" points="204.3 21.39 179.98 35.3 179.98 53.83 204.3 39.82 204.3 21.39"/><polygon class="cls-1" points="204.3 43.42 179.98 57.38 179.98 75.56 204.3 61.51 204.3 43.42"/><polygon class="cls-1" points="204.3 65.28 179.98 79.6 179.98 97.95 204.3 83.46 204.3 65.28"/><polygon class="cls-1" points="204.3 87.24 179.98 101.11 179.98 119.47 204.3 105.5 204.3 87.24"/><polygon class="cls-1" points="204.3 108.93 179.98 122.98 179.98 132.77 195.05 132.77 204.3 127.19 204.3 108.93"/><polygon class="cls-1" points="206.77 125.79 246.33 103 214.72 103 206.77 107.79 206.77 125.79"/><polygon class="cls-1" points="253.18 103 257.92 103 257.92 118.5 233.42 132.77 206.77 132.77 206.77 129.98 253.18 103"/><polygon class="cls-1" points="239.13 132.77 257.92 122.01 257.92 132.77 239.13 132.77"/><polygon class="cls-2" points="246.95 84.47 257.92 78.11 257.92 84.47 246.95 84.47"/><polygon class="cls-2" points="257.92 74.33 257.92 56.15 209.1 84.47 240.71 84.47 257.92 74.33"/><polygon class="cls-2" points="256.25 53.83 206.77 82.41 206.77 63.97 224.73 53.83 256.25 53.83"/><polygon class="cls-2" points="218.06 53.83 206.77 60.37 206.77 53.83 218.06 53.83"/><polygon class="cls-1" points="206.77 5.53 226.22 5.53 206.77 16.75 206.77 5.53"/><polygon class="cls-1" points="206.77 20.06 232.02 5.53 257.92 5.53 257.92 8.73 212 35.3 206.77 35.3 206.77 20.06"/><polygon class="cls-1" points="257.92 12.33 218.41 35.3 249.93 35.3 257.92 30.69 257.92 12.33"/><polygon class="cls-1" points="265.01 8.38 269.78 5.53 301.48 5.53 265.01 26.65 265.01 8.38"/><polygon class="cls-1" points="265.01 30.51 308.33 5.53 339.94 5.53 288.22 35.3 265.01 35.3 265.01 30.51"/><polygon class="cls-1" points="283.74 37.93 265.01 48.69 265.01 37.93 283.74 37.93"/><polygon class="cls-1" points="294.37 35.3 325.8 35.3 343.1 25.24 343.1 7.06 294.37 35.3"/><polygon class="cls-1" points="332.21 35.3 343.1 28.93 343.1 35.3 332.21 35.3"/><polygon class="cls-1" points="289.34 37.93 265.01 52.2 265.01 70.31 289.34 56.15 289.34 37.93"/><polygon class="cls-2" points="291.9 37.93 316.22 37.93 316.22 40.78 291.9 54.84 291.9 37.93"/><polygon class="cls-1" points="327.74 37.93 343.1 37.93 343.1 47.28 318.78 61.33 318.78 42.98 327.74 37.93"/><polygon class="cls-2" points="316.22 44.21 316.22 62.74 291.9 77.05 291.9 58.61 316.22 44.21"/><polygon class="cls-1" points="289.34 60.02 289.34 78.11 265.01 92.51 265.01 73.98 289.34 60.02"/><polygon class="cls-1" points="265.01 96.11 289.34 82.06 289.34 100.15 265.01 114.39 265.01 96.11"/><polygon class="cls-2" points="291.9 80.48 316.22 66.6 316.22 84.95 291.9 98.74 291.9 80.48"/><polygon class="cls-1" points="318.78 65.11 343.1 50.88 343.1 69.5 318.78 83.29 318.78 65.11"/><polygon class="cls-1" points="318.78 86.8 343.1 72.66 343.1 91.19 318.78 105.15 318.78 86.8"/><polygon class="cls-2" points="316.22 88.29 316.22 106.38 291.9 120.69 291.9 102.17 316.22 88.29"/><polygon class="cls-1" points="289.34 103.75 289.34 122.01 271.1 132.77 265.01 132.77 265.01 117.89 289.34 103.75"/><polygon class="cls-1" points="289.34 125.79 277.18 132.77 289.34 132.77 289.34 125.79"/><polygon class="cls-2" points="291.9 124.3 291.9 132.77 308.94 132.77 316.22 128.53 316.22 110.16 291.9 124.3"/><polygon class="cls-1" points="318.78 130.79 318.78 132.77 343.1 132.77 343.1 116.83 318.78 130.79"/><polygon class="cls-1" points="343.1 94.7 318.78 108.84 318.78 126.84 343.1 112.97 343.1 94.7"/><polygon class="cls-1" points="353.2 132.77 374.4 120.34 374.4 132.77 353.2 132.77"/><polygon class="cls-1" points="350.07 112.79 374.4 98.74 374.4 116.83 350.07 130.88 350.07 112.79"/><polygon class="cls-1" points="350.07 108.84 374.4 94.7 374.4 76.53 350.07 90.75 350.07 108.84"/><polygon class="cls-1" points="350.07 86.89 374.4 73.01 374.4 54.84 350.07 68.71 350.07 86.89"/><polygon class="cls-1" points="350.07 47.11 350.07 65.02 374.4 51.41 374.4 37.93 365.76 37.93 350.07 47.11"/><polygon class="cls-1" points="359.35 37.93 350.07 37.93 350.07 43.16 359.35 37.93"/><polygon class="cls-2" points="376.95 53.83 401.28 53.83 401.28 57.29 376.95 71.43 376.95 53.83"/><polygon class="cls-2" points="401.28 61.33 376.95 75.3 376.95 84.47 392.63 84.47 401.28 79.42 401.28 61.33"/><polygon class="cls-1" points="350.07 35.3 363.91 35.3 415.2 5.53 383.5 5.53 350.07 24.8 350.07 35.3"/><polygon class="cls-1" points="350.07 5.53 377.35 5.53 350.07 21.18 350.07 5.53"/><polygon class="cls-1" points="421.87 5.53 428.16 5.53 428.16 20.41 402.02 35.3 370.41 35.3 421.87 5.53"/><polygon class="cls-1" points="428.16 23.57 408.08 35.3 428.16 35.3 428.16 23.57"/><polygon class="cls-1" points="403.84 37.93 428.16 37.93 428.16 41.58 403.84 55.89 403.84 37.93"/><polygon class="cls-1" points="403.84 59.66 428.16 45.53 428.16 63.79 403.84 77.93 403.84 59.66"/><polygon class="cls-1" points="403.84 81.62 428.16 67.66 428.16 85.75 403.84 100.15 403.84 81.62"/><polygon class="cls-1" points="428.16 89.43 403.84 103.4 403.84 121.4 428.16 107.44 428.16 89.43"/><polygon class="cls-1" points="428.16 111.21 403.84 125.35 403.84 132.77 422.31 132.77 428.16 129.48 428.16 111.21"/><polygon class="cls-1" points="435.09 129.39 435.09 132.77 459.41 132.77 459.41 115.25 435.09 129.39"/><polygon class="cls-1" points="435.09 125.53 459.41 111.21 459.41 93.12 435.09 107.35 435.09 125.53"/><polygon class="cls-1" points="435.09 103.48 459.41 89.43 459.41 71.43 435.09 85.35 435.09 103.48"/><polygon class="cls-1" points="435.09 81.97 459.41 67.66 459.41 49.65 435.09 63.44 435.09 81.97"/><polygon class="cls-1" points="435.09 59.84 459.41 45.53 459.41 27.52 435.09 41.4 435.09 59.84"/><polygon class="cls-1" points="435.09 37.93 459.41 24.01 459.41 5.53 435.09 19.53 435.09 37.93"/><path class="cls-1" d="M435.09,16.11c0-.26,18.66-10.58,18.66-10.58H435.09Z"/><polygon class="cls-2" points="462 5.53 462 22.34 468.68 18.61 462 5.53"/><polygon class="cls-2" points="470.08 21.38 462 26.03 462 44.21 477.19 35.3 470.08 21.38"/><polygon class="cls-2" points="478.8 38.45 462 48.07 462 66.51 485.95 52.48 478.8 38.45"/><polygon class="cls-2" points="486.41 55.89 462 69.76 462 84.03 463.72 87.46 486.41 73.98 486.41 55.89"/><polygon class="cls-2" points="486.41 77.93 464.87 89.76 472.12 104.22 486.41 95.84 486.41 77.93"/><polygon class="cls-2" points="486.41 99.8 473.56 107.1 480.56 121.08 486.41 118.15 486.41 99.8"/><polygon class="cls-2" points="486.41 121.4 482.03 124.01 486.41 132.77 486.41 121.4"/><polygon class="cls-1" points="488.96 119.82 488.96 132.77 498.62 132.77 513.28 124.01 513.28 105.94 488.96 119.82"/><polygon class="cls-1" points="513.28 127.98 504.68 132.77 513.28 132.77 513.28 127.98"/><polygon class="cls-1" points="488.96 98.22 488.96 116.3 513.28 102.52 513.28 84.34 488.96 98.22"/><polygon class="cls-1" points="488.96 76 513.28 62.12 513.28 80.21 488.96 94.61 488.96 76"/><polygon class="cls-1" points="488.96 54.04 488.96 72.57 513.28 58.52 513.28 40.08 488.96 54.04"/><polygon class="cls-1" points="488.96 50.62 513.28 36.83 513.28 18.66 488.96 32.35 488.96 50.62"/><polygon class="cls-1" points="488.96 28.49 513.28 14.53 513.28 5.53 497.48 5.53 488.96 10.4 488.96 28.49"/></g></svg>