<svg xmlns="http://www.w3.org/2000/svg" viewBox="0 0 524.44 148.44"><defs><style>.cls-1{fill:#273a73;}.cls-2{fill:#f23827;}</style></defs><g id="Layer_3" data-name="Layer 3"><polygon class="cls-1" points="9.81 12.01 9.81 42.14 21.76 42.14 73.84 12.01 9.81 12.01"/><polygon class="cls-1" points="36.54 44.88 36.54 77.35 61.23 63.09 61.23 44.88 36.54 44.88"/><polygon class="cls-1" points="36.54 124.82 36.54 139.29 61.23 139.29 61.23 110.59 36.54 124.82"/><polygon class="cls-1" points="80.46 12.01 28.37 42.14 87.93 42.14 87.93 12.01 80.46 12.01"/><polygon class="cls-1" points="94.87 135.15 119.2 120.98 119.2 139.29 94.87 139.29 94.87 135.15"/><polygon class="cls-2" points="121.68 61.07 142.3 61.07 121.68 73.15 121.68 61.07"/><polygon class="cls-2" points="121.68 75.65 121.68 90.98 146.1 90.98 146.1 61.51 121.68 75.65"/><polygon class="cls-1" points="172.91 133.71 163.12 139.29 172.91 139.29 172.91 133.71"/><polygon class="cls-1" points="239.1 139.29 257.9 128.53 257.9 139.29 239.1 139.29"/><polygon class="cls-1" points="206.73 12.01 226.19 12.01 206.73 23.23 206.73 12.01"/><polygon class="cls-1" points="264.99 14.87 269.75 12.01 301.46 12.01 264.99 33.14 264.99 14.87"/><polygon class="cls-1" points="332.21 41.79 343.1 35.42 343.1 41.79 332.21 41.79"/><polygon class="cls-1" points="264.99 44.43 264.99 76.82 289.32 62.65 289.32 44.43 264.99 44.43"/><polygon class="cls-2" points="291.88 44.43 316.21 44.43 316.21 47.28 291.88 61.34 291.88 44.43"/><polygon class="cls-1" points="264.99 124.4 264.99 139.29 289.32 139.29 289.32 110.26 264.99 124.4"/><polygon class="cls-1" points="318.77 137.31 318.77 139.29 343.1 139.29 343.1 123.35 318.77 137.31"/><polygon class="cls-1" points="350.07 44.43 350.07 71.53 374.4 57.91 374.4 44.43 350.07 44.43"/><polygon class="cls-1" points="350.07 12.01 377.36 12.01 350.07 27.67 350.07 12.01"/><polygon class="cls-1" points="428.18 30.07 408.1 41.79 428.18 41.79 428.18 30.07"/><path class="cls-1" d="M435.11,22.6c0-.26,18.67-10.59,18.67-10.59H435.11Z"/><polygon class="cls-2" points="486.45 127.92 482.06 130.53 486.45 139.29 486.45 127.92"/><polygon class="cls-1" points="489 126.34 489 139.29 513.33 139.29 513.33 112.46 489 126.34"/><polygon class="cls-1" points="489 34.98 513.33 21.02 513.33 12.01 497.52 12.01 489 16.89 489 34.98"/><polygon class="cls-1" points="36.54 80.98 36.54 121.35 61.23 107.12 61.23 66.72 36.54 80.98"/><polygon class="cls-1" points="94.87 91.23 94.87 131.34 119.2 117.23 119.2 77.06 94.87 91.23"/><polygon class="cls-2" points="94.87 47.43 94.87 87.66 119.2 73.66 119.2 33.26 94.87 47.43"/><polygon class="cls-1" points="94.87 12.01 94.87 43.74 119.2 29.68 119.2 12.01 94.87 12.01"/><polygon class="cls-1" points="156 12.01 148.58 16.27 148.58 56.59 172.91 42.54 172.91 12.01 156 12.01"/><polygon class="cls-1" points="148.58 59.93 148.58 100.16 172.91 86.19 172.91 45.96 148.58 59.93"/><polygon class="cls-1" points="148.58 104.11 148.58 139.29 157.15 139.29 172.91 130.13 172.91 89.97 148.58 104.11"/><polygon class="cls-1" points="179.93 86.11 179.93 125.98 204.26 112.02 204.26 71.79 179.93 86.11"/><polygon class="cls-1" points="179.93 41.79 179.93 82.06 204.26 68.01 204.26 27.88 179.93 41.79"/><polygon class="cls-1" points="179.93 12.01 179.93 38.67 204.26 24.36 204.26 12.01 179.93 12.01"/><polygon class="cls-1" points="231.98 12.01 206.73 26.55 206.73 41.79 249.9 41.79 257.9 37.18 257.9 12.01 231.98 12.01"/><polygon class="cls-1" points="179.93 129.5 179.93 139.29 204.26 139.29 204.26 115.44 179.93 129.5"/><polygon class="cls-1" points="214.68 109.52 206.73 114.3 206.73 139.29 233.39 139.29 257.9 125.02 257.9 109.52 214.68 109.52"/><polygon class="cls-1" points="308.31 12.01 264.99 37 264.99 41.79 325.8 41.79 343.1 31.73 343.1 12.01 308.31 12.01"/><polygon class="cls-1" points="264.99 80.48 264.99 120.91 289.32 106.66 289.32 66.52 264.99 80.48"/><polygon class="cls-1" points="327.73 44.43 318.77 49.48 318.77 89.8 343.1 76 343.1 44.43 327.73 44.43"/><polygon class="cls-1" points="318.77 93.31 318.77 133.36 343.1 119.48 343.1 79.17 318.77 93.31"/><polygon class="cls-1" points="383.5 12.01 350.07 31.3 350.07 41.79 402.04 41.79 428.18 26.9 428.18 12.01 383.5 12.01"/><polygon class="cls-1" points="350.07 75.21 350.07 115.36 374.4 101.21 374.4 61.34 350.07 75.21"/><polygon class="cls-1" points="350.07 119.31 350.07 139.29 374.4 139.29 374.4 105.25 350.07 119.31"/><polygon class="cls-1" points="403.85 44.43 403.85 84.44 428.18 70.3 428.18 44.43 403.85 44.43"/><polygon class="cls-1" points="403.85 88.13 403.85 127.92 428.18 113.95 428.18 74.16 403.85 88.13"/><polygon class="cls-1" points="403.85 131.87 403.85 139.29 428.18 139.29 428.18 117.73 403.85 131.87"/><polygon class="cls-1" points="459.44 99.63 435.11 113.86 435.11 139.29 459.44 139.29 459.44 99.63"/><polygon class="cls-1" points="435.11 69.94 435.11 110 459.44 95.94 459.44 56.15 435.11 69.94"/><polygon class="cls-1" points="435.11 26.02 435.11 66.34 459.44 52.02 459.44 12.01 435.11 26.02"/><polygon class="cls-1" points="489 38.85 489 79.08 513.33 65.03 513.33 25.15 489 38.85"/><polygon class="cls-1" points="489 82.5 489 122.82 513.33 109.03 513.33 68.63 489 82.5"/><polygon class="cls-2" points="224.69 60.33 206.73 70.47 206.73 90.98 240.68 90.98 257.9 80.83 257.9 60.33 224.69 60.33"/><polygon class="cls-2" points="291.88 139.29 308.93 139.29 316.21 135.05 316.21 94.8 291.88 108.68 291.88 139.29"/><polygon class="cls-2" points="291.88 65.11 291.88 105.25 316.21 91.46 316.21 50.71 291.88 65.11"/><polygon class="cls-2" points="376.96 60.33 376.96 90.98 392.64 90.98 401.29 85.93 401.29 60.33 376.96 60.33"/><polygon class="cls-2" points="462.03 12.01 462.03 50.71 477.22 41.79 462.03 12.01"/><polygon class="cls-2" points="478.83 44.95 462.03 54.57 462.03 90.54 463.75 93.97 486.45 80.48 486.45 60.33 478.83 44.95"/><polygon class="cls-2" points="464.9 96.27 480.59 127.6 486.45 124.67 486.45 84.44 464.9 96.27"/></g></svg>