<svg id="Layer_1" data-name="Layer 1" xmlns="http://www.w3.org/2000/svg" viewBox="0 0 114.96 193.78"><defs><style>.cls-1{fill:#fff;}</style></defs><path class="cls-1" d="M101.17,48.14C97.54,45.55,90.26,42.32,82.3,45,77,46.83,74,52.16,71.94,55.4a87,87,0,0,0-4.14,9.31c-.79,2.3-1.33,4-2.28,6.28a66.94,66.94,0,0,1-3.14,6.63q-2.21,4-4.45,8c.91-4,3.12-13.52,4.89-18.45,2.49-7,3.51-6.89,4.63-16.2.84-7-1.12-23.81-6.63-31.56a34.8,34.8,0,0,0-8.5-8.91c-.7-.49-2-1.4-2.86-.91-.49.28-.35,1.12-.35,1.12a5.49,5.49,0,0,0,1.51,2.68c1.28,1.55,2.12,2.6,2.4,3a15,15,0,0,1,1.65,4A14.1,14.1,0,0,1,55,24.8c-.09.67-.18,1.69-1.93,1.76a28.78,28.78,0,0,0-10.35,2.19,21.94,21.94,0,0,0-9.31,7.38,22.25,22.25,0,0,0-4,13.17c0,2.17-.18,9.8,4.14,14.24C35,65,39.36,69.29,43.64,69.73A6.35,6.35,0,0,1,47,71.15a4,4,0,0,1,1,3c.07,2.89-.32,6.64-.37,8.66,0,0-.49,8-.95,13.92-.26,3.28-.59,7-1,11C34.63,127.2,23.42,146.56,12,166a21.34,21.34,0,0,0-2.42,4.84c-.28,1.16-.24,1.77.25,1.91.77.21,1.05-.17,2-1.31,1.52-1.81,1.63-2.32,5-6.61C17.88,163.45,30.77,144,44,124.31c-1.21,11.71-2.52,23.48-3.42,31.53,0,0-1.28,12.94-1.89,18.51-.26,2.18-.65,7.68-.72,9.75a.89.89,0,0,0,1.56.39,30.66,30.66,0,0,0,1.42-4.28c2.49-9.4,5.09-26.23,5.68-29.65,1.67-10,2.09-18,5.84-38.42,0-.23.09-.47.14-.7,7.33-10.94,13.91-20.71,17.55-25.93a18.37,18.37,0,0,1,2.32-2.72,4.41,4.41,0,0,1,4.14-.37,16.57,16.57,0,0,1,2.33,1.28c5.87,3.93,9.94,3.63,13.31,2.84C99,85,104,78.93,106.43,70.67,109.29,60.94,107.25,52.49,101.17,48.14Zm-59.09,16c-5.7-2.18-8.47-10.59-8.4-13.57,0-1.53-.37-6.58,3-11.38.53-.76,5.7-7.93,13.17-7.09A13.13,13.13,0,0,1,57.46,36a15.61,15.61,0,0,1,4.8,10.1c.16,5-.23,8.12-3.38,13.68S48.34,66.59,42.08,64.17Zm7.84,46.27a1.4,1.4,0,1,1-1.39-1.4A1.4,1.4,0,0,1,49.92,110.44Zm51-39.15c-.6,1.24-4.86,10.17-13.59,10.34a14.15,14.15,0,0,1-12.91-8,14.23,14.23,0,0,1-.79-7.89C74,62.52,74.92,53.82,82,50.35c6.24-3.07,15-1,19,5.17C105.29,62.12,101.61,69.83,100.91,71.29Z"/></svg>