<svg id="Layer_1" data-name="Layer 1" xmlns="http://www.w3.org/2000/svg" viewBox="0 0 489.41 204.43"><defs><style>.cls-1{font-size:136.83px;font-family:S-CoreDream-9Black, S-Core Dream;font-weight:800;letter-spacing:-0.01em;}.cls-1,.cls-2,.cls-3{fill:#131313;}.cls-2{font-size:71.42px;}.cls-2,.cls-4{font-family:OTELANDChoiceM-KSCpc-EUC-H, ELAND ChoiceOTF;}.cls-4{font-size:21.61px;fill:#212950;}.cls-5{letter-spacing:-0.04em;}</style></defs><text class="cls-1" transform="matrix(0.94, -0.01, -0.1, 0.84, 3.81, 110.11)">더맨</text><text class="cls-2" transform="matrix(0.94, -0.01, -0.13, 0.99, 255.22, 99.98)">남성컷</text><path class="cls-3" d="M510.9,73.62a9.16,9.16,0,0,0-8.11-1.33c-2.28.77-3.58,3.06-4.45,4.45a38.17,38.17,0,0,0-1.78,4c-.34,1-.57,1.72-1,2.7a27.76,27.76,0,0,1-1.35,2.85c-.63,1.15-1.27,2.3-1.91,3.45.39-1.7,1.34-5.81,2.1-7.93,1.07-3,1.51-3,2-7,.36-3-.48-10.23-2.85-13.56a14.92,14.92,0,0,0-3.65-3.83c-.3-.21-.87-.6-1.23-.39-.21.12-.15.48-.15.48a2.34,2.34,0,0,0,.65,1.15c.55.67.91,1.12,1,1.31a6.51,6.51,0,0,1,.71,1.73,6.1,6.1,0,0,1,.16,1.85c0,.29-.08.73-.83.76a12.38,12.38,0,0,0-4.45.94,9.42,9.42,0,0,0-4,3.17,9.59,9.59,0,0,0-1.73,5.66c0,.93-.08,4.21,1.78,6.12.61.62,2.49,2.47,4.33,2.66a2.71,2.71,0,0,1,1.42.61,1.7,1.7,0,0,1,.42,1.28c0,1.24-.14,2.85-.16,3.72,0,0-.21,3.44-.41,6-.11,1.41-.25,3-.41,4.71-4.73,8.39-9.55,16.71-14.44,25a9.13,9.13,0,0,0-1,2.08c-.12.5-.1.76.11.82s.45-.07.86-.56c.65-.78.7-1,2.13-2.84.45-.58,6-8.92,11.66-17.4-.52,5-1.08,10.09-1.47,13.55,0,0-.55,5.56-.81,7.95-.11.94-.28,3.3-.31,4.19a.38.38,0,0,0,.67.17,13.22,13.22,0,0,0,.61-1.84c1.07-4,2.19-11.27,2.44-12.74.72-4.31.9-7.72,2.51-16.51l.06-.3c3.15-4.7,6-8.9,7.54-11.14a7.75,7.75,0,0,1,1-1.17,1.9,1.9,0,0,1,1.78-.16,7.35,7.35,0,0,1,1,.55,6.59,6.59,0,0,0,5.72,1.22c2.89-.66,5.06-3.27,6.1-6.82C514.39,79.12,513.51,75.49,510.9,73.62Zm-25.39,6.89c-2.45-.94-3.64-4.55-3.61-5.83a8,8,0,0,1,1.28-4.89c.23-.33,2.45-3.41,5.66-3.05a5.67,5.67,0,0,1,3.28,1.66,6.7,6.7,0,0,1,2.06,4.34,9.44,9.44,0,0,1-1.45,5.88C491.4,81,488.2,81.55,485.51,80.51Zm3.37,19.88a.6.6,0,1,1-.6-.6A.6.6,0,0,1,488.88,100.39Zm21.91-16.82c-.26.53-2.09,4.37-5.84,4.44a6.07,6.07,0,0,1-5.55-3.44,6.16,6.16,0,0,1-.34-3.39c.16-1.38.56-5.12,3.62-6.61a6.61,6.61,0,0,1,8.16,2.22C512.67,79.63,511.09,82.94,510.79,83.57Z" transform="translate(-24.29 -57.01)"/><text class="cls-4" transform="matrix(0.85, 0, -0.11, 0.99, 270.55, 39.58)">Beauty Salon <tspan class="cls-5" x="137.63" y="0">F</tspan><tspan x="149.08" y="0">or Men</tspan></text></svg>