<svg id="Layer_1" data-name="Layer 1" xmlns="http://www.w3.org/2000/svg" viewBox="0 0 489.56 143.37"><defs><style>.cls-1,.cls-2,.cls-4,.cls-5,.cls-6{isolation:isolate;}.cls-1{font-size:115.75px;font-family:S-CoreDream-8Heavy, S-Core Dream;font-weight:800;letter-spacing:-0.01em;}.cls-1,.cls-2,.cls-3{fill:#131313;}.cls-2{font-size:71.31px;}.cls-2,.cls-5,.cls-6{font-family:OTELANDChoiceM-KSCpc-EUC-H, ELAND ChoiceOTF;}.cls-5,.cls-6{font-size:21.53px;fill:#212950;}.cls-6{letter-spacing:-0.04em;}</style></defs><text class="cls-1" transform="matrix(1.11, -0.01, -0.12, 0.99, 3.95, 110.15)">더맨</text><text class="cls-2" transform="matrix(0.94, -0.01, -0.13, 0.99, 255.36, 100.02)">남성컷</text><path class="cls-3" d="M483.61,21.61a9.16,9.16,0,0,0-8.11-1.33c-2.28.77-3.58,3.06-4.45,4.45a38.64,38.64,0,0,0-1.78,4c-.34,1-.57,1.72-1,2.7a29.68,29.68,0,0,1-1.35,2.85c-.63,1.15-1.27,2.3-1.91,3.45.39-1.7,1.34-5.81,2.1-7.93,1.07-3,1.51-3,2-7,.36-3-.48-10.23-2.85-13.56a14.94,14.94,0,0,0-3.65-3.83c-.3-.21-.87-.6-1.23-.39-.21.12-.15.48-.15.48a2.32,2.32,0,0,0,.65,1.15,11.09,11.09,0,0,1,1,1.31,6.37,6.37,0,0,1,.71,1.73,6.05,6.05,0,0,1,.16,1.85c0,.29-.08.73-.83.76a12.35,12.35,0,0,0-4.45.94,9.49,9.49,0,0,0-4,3.17,9.62,9.62,0,0,0-1.73,5.66c0,.93-.08,4.21,1.78,6.12.61.62,2.49,2.47,4.33,2.66a2.67,2.67,0,0,1,1.42.61,1.7,1.7,0,0,1,.42,1.28c0,1.24-.14,2.85-.16,3.72,0,0-.21,3.44-.41,6-.11,1.41-.25,3-.41,4.71q-7.09,12.59-14.44,25a9.05,9.05,0,0,0-1,2.08c-.12.5-.1.76.11.82s.45-.07.86-.56c.65-.78.7-1,2.13-2.84.45-.58,6-8.92,11.66-17.4-.52,5-1.08,10.09-1.47,13.55,0,0-.55,5.56-.81,8-.11.94-.28,3.3-.31,4.19a.39.39,0,0,0,.44.31.43.43,0,0,0,.23-.14,13.22,13.22,0,0,0,.61-1.84c1.07-4,2.19-11.27,2.44-12.74.72-4.31.9-7.72,2.51-16.51l.06-.3c3.15-4.7,6-8.9,7.54-11.14a7.93,7.93,0,0,1,1-1.17,1.88,1.88,0,0,1,1.78-.16,7.46,7.46,0,0,1,1,.55A6.57,6.57,0,0,0,479.77,38c2.89-.66,5.06-3.27,6.1-6.82C487.1,27.11,486.22,23.48,483.61,21.61ZM458.22,28.5c-2.45-.94-3.64-4.55-3.61-5.83a8,8,0,0,1,1.28-4.89c.23-.33,2.45-3.41,5.66-3.05a5.66,5.66,0,0,1,3.28,1.66,6.71,6.71,0,0,1,2.06,4.34,9.38,9.38,0,0,1-1.45,5.88C464.11,29,460.91,29.54,458.22,28.5Zm3.37,19.88a.6.6,0,1,1-.6-.6.6.6,0,0,1,.6.6ZM483.5,31.56c-.26.53-2.09,4.37-5.84,4.44a6.07,6.07,0,0,1-5.55-3.44,6.14,6.14,0,0,1-.34-3.39c.16-1.38.56-5.12,3.62-6.61a6.62,6.62,0,0,1,8.16,2.22C485.38,27.62,483.8,30.93,483.5,31.56Z" transform="translate(3.14 -4.96)"/><g class="cls-4"><text class="cls-5" transform="matrix(0.85, 0, -0.11, 0.99, 270.69, 39.62)">Beauty Salon </text><text class="cls-6" transform="matrix(0.85, 0, -0.11, 0.99, 387.68, 39.62)">F</text><text class="cls-5" transform="matrix(0.85, 0, -0.11, 0.99, 397.41, 39.62)">or Men</text></g></svg>